<?xml version="1.0" encoding="UTF-8"?>
<svg id="Layer_1" data-name="Layer 1" xmlns="http://www.w3.org/2000/svg" viewBox="0 0 706.72 563.74">
  <defs>
    <style>
      .cls-1 {
        fill: #fff;
      }

      .cls-2 {
        fill: none;
        stroke: #fff;
        stroke-miterlimit: 10;
        stroke-width: 10px;
      }
    </style>
  </defs>
  <g>
    <path class="cls-1" d="m261.9,262.77c0,6.29.48,6.29.48,12.59,0,6.3-.47,6.3-.46,12.59,0,6.3,1.16,6.29,1.17,12.59,0,6.29-1.76,6.3-1.75,12.59,0,6.3,1.13,6.29,1.14,12.59s.62,6.3.62,12.59c0,6.3-.03,6.3-.02,12.59,0,6.3-.3,6.3-.3,12.6q0,6.3.03,12.6"/>
    <path class="cls-2" d="m261.9,262.77c0,6.29.48,6.29.48,12.59,0,6.3-.47,6.3-.46,12.59,0,6.3,1.16,6.29,1.17,12.59,0,6.29-1.76,6.3-1.75,12.59,0,6.3,1.13,6.29,1.14,12.59s.62,6.3.62,12.59c0,6.3-.03,6.3-.02,12.59,0,6.3-.3,6.3-.3,12.6q0,6.3.03,12.6"/>
  </g>
  <g>
    <path class="cls-1" d="m141.46,336.19c5.25,3.25,6.06,1.94,11.3,5.2,5.25,3.25,4.3,4.78,9.54,8.04,5.24,3.25,5.27,3.21,10.52,6.46,5.24,3.25,5.3,3.16,10.55,6.41,5.25,3.25,5.29,3.18,10.53,6.44s5.16,3.4,10.41,6.65c5.25,3.25,5.22,3.29,10.47,6.54,5.25,3.26,5.59,2.7,10.84,5.96s5.52,2.82,10.77,6.07"/>
    <path class="cls-2" d="m141.46,336.19c5.25,3.25,6.06,1.94,11.3,5.2,5.25,3.25,4.3,4.78,9.54,8.04,5.24,3.25,5.27,3.21,10.52,6.46,5.24,3.25,5.3,3.16,10.55,6.41,5.25,3.25,5.29,3.18,10.53,6.44s5.16,3.4,10.41,6.65c5.25,3.25,5.22,3.29,10.47,6.54,5.25,3.26,5.59,2.7,10.84,5.96s5.52,2.82,10.77,6.07"/>
  </g>
  <path class="cls-1" d="m394.33,189.77c-.02-.26-.81.44-1.04.31-5.19-3.09-5.03-3.36-10.11-6.62-5.08-3.26-9.57-.51-9.63-6.54-.05-5.24,4.68-.86,9.72-2.31,5.04-1.45,6.57.58,9.53-3.74,3.17-4.64,4.79-8.09.09-11.17-4.98-3.27-5.85,1.86-11.55,3.6-5.69,1.73-5.56,2.17-11.26,3.9s-5.73,1.64-11.42,3.37c-5.7,1.73-5.59,2.09-11.28,3.83-5.69,1.73-5.89,1.09-11.58,2.82-5.7,1.73-5.64,1.93-11.33,3.66-5.7,1.73-5.61,2.01-11.31,3.75s-5.86,1.21-11.55,2.94c-5.7,1.73-5.46,2.51-11.16,4.24-5.7,1.73-8.47-2.37-12.24,2.25-3.32,4.06-3.41,7.55,1.05,10.3,5.12,3.16,5.19-3.53,11.15-2.65s5.05,3.33,10.13,6.58c5.08,3.26,10.59.43,10.3,6.46-.27,5.53-5.53,1.11-10.85,2.64-5.32,1.53-5.37,1.37-10.69,2.9-5.32,1.53-6.67-.45-9.83,4.09-3.49,5.03.29,5.68.29,11.8,0,6.12-1.01,6.12-1.01,12.24,0,6.12.83,6.12.83,12.24,0,6.12-1.11,6.12-1.11,12.24,0,6.12.59,6.12.59,12.24,0,6.12-.87,6.12-.87,12.24,0,6.12.04,6.12.04,12.25,0,6.12.03,6.12.03,12.24,0,6.13.79,6.13.79,12.25,0,6.13-4.44,7.81-.31,12.34,3.76,4.13,5.68-.67,11.27-.67s5.59-.32,11.17-.32,5.58.18,11.17.18,5.59,1.33,11.18,1.33,6.64,2.77,10.57-1.2c3.97-4.01-.38-5.05-.38-10.69,0-5.64,1.18-5.64,1.18-11.29,0-5.64-.34-5.64-.34-11.29,0-5.65.38-5.65.38-11.29,0-5.64-.17-5.64-.17-11.29,0-5.65.21-5.65.21-11.3,0-5.65-4.42-7.45-.51-11.52,3.86-4.03,5.83.67,11.41.5,5.58-.17,5.54-1.52,11.12-1.68,5.58-.17,5.59.36,11.17.2,5.58-.17,5.56-.79,11.15-.95s7.67,4.84,11.35.64c4.14-4.72-.64-6.43-.58-12.71.07-6.28.89-6.28.95-12.56.07-6.28,4.44-8.24.26-12.93-3.73-4.2-6.02.16-11.64.21-5.62.04-5.62-.43-11.24-.38s-5.6,1.39-11.22,1.44c-5.62.04-5.62-.35-11.24-.31s-11.73,5.48-10.64-.04c1.22-6.16,5.5-1.64,11.48-3.53,5.99-1.89,6.15-1.37,12.14-3.26,5.98-1.89,5.56-3.23,11.55-5.12,5.99-1.89,6.31-.86,12.3-2.76,5.99-1.89,8.42,1,12.49-3.78,3.19-3.75-.27-5.5-.21-10.43.06-4.95-.32-4.99-.77-9.89Zm-63.17,18.46c-5.96-1-5.24-2.69-10.32-5.95-5.08-3.26-10.36-.6-10.12-6.64.22-5.48,5.45-1.01,10.72-2.53,5.27-1.52,5.29-1.44,10.57-2.96,5.27-1.52,4.98-2.54,10.26-4.06s5.22-3.27,10.64-2.36c5.96,1,5.08,3.08,10.17,6.34,5.08,3.26,10.83.43,10.59,6.47-.22,5.48-5.58,1.77-10.85,3.29s-5.17,1.88-10.44,3.4c-5.27,1.52-5.67.28-10.74,2.39-5.09,2.13-5.06,3.51-10.47,2.6Z"/>
  <g>
    <path class="cls-1" d="m243.96,400.76c-4.37,0-8.66-.74-12.14-2.66-3.64-2.01-6.85-5.12-8.89-8.81-1.89-3.41-2.74-7.68-2.74-12.16s1.05-8.65,2.94-12.05c2.04-3.69,5.56-6,9.2-8.01,3.48-1.92,7.26-3.78,11.64-3.78s8.85.61,12.33,2.53,6.03,5.81,8.07,9.5c1.89,3.41,3.83,7.33,3.83,11.81s-2.29,8.21-4.18,11.62c-2.04,3.69-4.49,6.95-8.12,8.96-3.48,1.92-7.55,3.05-11.92,3.05Zm0-36.29c-3.52,0-6.01,1.6-7.92,4.04-1.71,2.2-2.53,4.97-2.53,8.62s.63,6.56,2.34,8.76c1.91,2.45,4.58,3.71,8.1,3.71s6.83-.77,8.74-3.21c1.71-2.2,1.91-5.61,1.91-9.26s-1.32-6.18-3.04-8.38c-1.91-2.45-4.08-4.28-7.61-4.28Z"/>
    <path class="cls-1" d="m286.13,399.68c-5.07-3.34-2.37-6.16-4.55-11.83-2.18-5.67-1.78-5.82-3.96-11.49s-1.53-5.92-3.71-11.59c-2.18-5.67-7.66-5.83-4.03-10.7,3.83-5.14,6.56-3.66,12.04-.34,4.58,2.78,1.22,5.14,3.09,10.16,1.87,5.03,3.32,4.49,5.19,9.52,1.87,5.03.83,5.43,2.83,10.41.05.13.01-.13.07-.27,2-4.98,1.9-5,3.77-10.03,1.87-5.03,1.64-5.12,3.51-10.15,1.87-5.03-.5-7.52,4.04-10.38,5.14-3.25,9.05-4.43,12.51.58,3.45,5-1.44,5.93-3.61,11.6-2.18,5.67-3.18,5.28-5.36,10.95-2.18,5.67-2.37,5.6-4.55,11.27-2.18,5.67.57,7.3-3.19,12.07-4.34,5.5-8.69,3.76-14.08.22Z"/>
    <path class="cls-1" d="m356.51,399.4c-4.54,3.85-6.35-.45-12.3-.45-5.95,0-5.95.64-11.91.64-5.95,0-7.57,3.41-11.88-.7-4.11-3.91-.05-5.64-.05-11.31,0-5.67.84-5.67.84-11.34,0-5.67-1.5-5.67-1.5-11.34,0-5.67-3.16-7.15.91-11.1,4.19-4.07,5.61.35,11.45.35s5.85-1.53,11.69-1.53,7.82-3.52,12.25.29c3.82,3.29,3.89,8.15.1,11.47-4.34,3.79-6.42-.11-12.18-.11s-7.13-4.47-11.98-1.35c-3.12,2.01-3.25,7.38.17,8.81,8.21,3.42,10.17-4.77,17.93-.43,4.34,2.42,4.87,7.98.54,10.4-7.76,4.34-10.01-4.21-18.14-.62-3.59,1.58-3,5.12.27,7.29,4.94,3.27,5.61.22,11.53.22s6.61-2.56,12.01-.11c5.19,2.35,4.08,7.66.24,10.91Z"/>
    <path class="cls-1" d="m390.22,399.82c-.94-1.22-2.14-4.88-2.5-9.56-.36-5.18-1.88-6.74-5.98-6.74-4.07,0-6.33-3.29-8.26.29-3.58,6.62,4.24,8.78-.45,14.65-3.75,4.7-7.72,5.27-12.09,1.15-4.13-3.89.31-6.36.31-12.03,0-5.67,1.3-5.67,1.3-11.34,0-5.67-.84-5.67-.84-11.34s-4.46-7.67-.43-11.66c4.07-4.03,6.04.78,11.77.78s5.72.17,11.45.17c5.3,0,9.1.93,12,2.99,3.52,2.5,5.79,5.93,5.79,10.79,0,6.62-4.89,10.65-10.43,11.37,4.68.94,7.46,3.95,7.96,9.2.65,6.77,1.34,8.66,2.86,10.32-5.26,3.42-6.25,1.54-12.42.97Zm-7.91-26.28c5.18,0,7.06-.4,7.06-4.57,0-3.67-1.87-5.97-7.06-5.97-4.36,0-6.13-3.16-8.83.27-3.43,4.36-2.75,6.37-.57,11.47,1.73,4.04,5.04-1.19,9.39-1.19Z"/>
    <path class="cls-1" d="m420.27,399.28c-4.23-4.08.61-6.24.61-12.12,0-5.88-.4-5.88-.4-11.76,0-5.88,5.07-8.53.38-12.08-6.2-4.69-9.21,4.46-15.73.23-4.23-2.74-3.98-6.8-.29-10.23,3.99-3.7,5.66-.45,11.1-.45s5.43,1.05,10.87,1.05,5.44-.63,10.88-.63,6.79-3.32,10.78.37c3.7,3.43,4.85,8.07.61,10.78-6.64,4.25-10.43-6.14-16.75-1.43-4.71,3.51-.49,6.5-.49,12.38,0,5.88,1.72,5.88,1.72,11.76,0,5.88,2.74,6.94.12,12.2-2.98,5.98-9.03,4.15-13.4-.08Z"/>
    <path class="cls-1" d="m454.03,398.68c-4.16-3.85-1.1-5.42-1.1-11.09,0-5.67.69-5.67.69-11.34,0-5.67-.8-5.67-.8-11.34,0-5.67-3.11-7.42,1.05-11.27,4.49-4.16,8.19-4.75,11.7.26,5.02,7.17-3.78,9.52.23,17.29,2.07,4.01,4.76.56,9.28.56s7.25,3.48,9.33-.54c4.01-7.77-5.09-10.33-.08-17.5,3.51-5.02,8.05-4.87,12.54-.71,4.16,3.85-1.22,6.23-1.22,11.9,0,5.67-.23,5.67-.23,11.34,0,5.67,1.68,5.67,1.68,11.34s3.73,7.83-.43,11.69c-4.49,4.16-9.33,4.86-12.78-.19-5.05-7.4,3.41-9.65-.62-17.66-2.03-4.03-3.68-.38-8.2-.38s-7.81-4.48-9.85-.45c-4.03,8.01,4.53,10.14,1.61,18.61-2.08,6.03-8.33,3.64-12.82-.52Z"/>
    <path class="cls-1" d="m516.03,353c4.16,3.85-.19,6.23-.19,11.9,0,5.67.63,5.67.63,11.34,0,5.67-.43,5.67-.43,11.34s3.86,7.75-.3,11.6c-4.49,4.16-7.73,3.62-12.22-.54-4.16-3.85.3-5.39.3-11.06,0-5.67-.31-5.67-.31-11.34,0-5.67-.12-5.67-.12-11.34s-3.51-6.71-.92-11.75c3.11-6.04,9.06-4.31,13.55-.15Z"/>
    <path class="cls-1" d="m552.34,379.45c5.13-3.63-.09-7.04-.09-13.32s-3.94-7.26.24-11.95c3.74-4.19,6.89-4.91,10.84-.92,3.99,4.03.15,5.97.15,11.64,0,5.67-.31,5.67-.31,11.34,0,5.67-1.06,5.67-1.06,11.34,0,5.67,5.36,7.68,1.65,11.97-3.2,3.71-6.24,1.75-10.53-.6-4.86-2.66-3.94-4-7.2-8.47s-2.87-4.77-6.13-9.24c-3.27-4.48-1.35-11.83-5.92-8.7-5.54,3.8-.16,6.25-.16,12.96,0,6.71,4.07,8.22-.23,13.37-3.6,4.31-7.18,4.03-11.14.04-3.99-4.03-.42-5.65-.42-11.32s-.32-5.67-.32-11.34q0-5.67,0-11.34c0-5.67-3.03-7.06,1.04-11.02,4.18-4.07,6.22-3.12,11.48-.61,4.62,2.2,2.11,4.97,5.06,9.16s5.53,2.79,7.43,7.56c2.38,5.97,1.45,12.43,5.63,9.46Z"/>
    <path class="cls-1" d="m598.54,399.39c-5.06-2.18-3.75-4.43-6.9-8.95-3.15-4.52-.27-7.79-5.27-10.09-2.66-1.22-3.74,1.91-4.37,4.77-1.47,6.72,5.16,9.02.58,14.15-4.07,4.57-8.78,4.47-13.27.31-4.16-3.85,0-6.34,0-12.01,0-5.67,1.55-5.67,1.55-11.34,0-5.67-1.12-5.67-1.12-11.34,0-5.67-3.89-7.4.27-11.25,4.49-4.16,7.14-3.6,12.04.07,3.67,2.75.08,4.43.08,9.02,0,4.59-4.55,8.57.04,8.57,6.13,0,3.72-4.29,7.78-8.88,4.07-4.59,2.94-6.23,8.61-8.58,6.49-2.69,9.8-6.03,13.18.12,3.13,5.71-3.62,4.42-7.99,9.25-4.37,4.82-7.94,3.18-8.86,9.63-.75,5.26,3.5,4.12,6.56,8.46,3.06,4.35,2.77,4.55,5.83,8.89,3.06,4.35,6.72,3.44,5.86,8.69-1.24,7.49-7.89,3.41-14.6.51Z"/>
    <path class="cls-1" d="m251.52,446.96c-4.16-3.85.88-5.71.88-11.38,0-5.67-1.77-5.67-1.77-11.34,0-5.67-.03-5.67-.03-11.34s-2.66-6.94,1.36-10.94,5.31.18,11.02.18,5.71.24,11.43.24,7.1-4.56,11.38-.78c3.78,3.33,4.11,7,.39,10.41-4.06,3.72-5.85.62-11.36.62s-6.81-4.56-11.13-1.14c-3.42,2.7-3.8,6.95.06,8.98,7.33,3.86,9.81-4.86,16.91-.6,4.26,2.56,3.46,7.02-.8,9.57-7.1,4.26-10.41-5.22-16.25.65s3.45,9.17.54,16.96c-2.28,6.11-8.12,4.07-12.61-.09Z"/>
    <path class="cls-1" d="m302.82,402.11c4.16,3.85.48,5.12.48,10.79s-.85,5.67-.85,11.34,1.52,5.67,1.52,11.34,3.64,7.63-.52,11.48c-4.49,4.16-8.03,4.19-12.52.03-4.16-3.85-.56-5.84-.56-11.51,0-5.67,1.51-5.67,1.51-11.34,0-5.67-.79-5.67-.79-11.34s-3.05-6.51-.57-11.62c2.71-5.6,7.81-3.34,12.3.82Z"/>
    <path class="cls-1" d="m322.01,402.05c4.24,4.07,1.21,5.39,1.21,11.27,0,5.88-.95,5.88-.95,11.76,0,5.88-4.48,8.11-.41,12.36,3.88,4.06,6.24-.91,11.86-.91s6.52-2.84,10.7.91c3.75,3.37,4.8,6.7,1,10.01-4.36,3.8-6.24-1.19-12.02-1.19-5.79,0-5.79,1.45-11.57,1.45-5.79,0-6.97,2.79-11.1-1.26-4.05-3.97.37-5.19.37-10.86s.14-5.67.14-11.34c0-5.67-.14-5.67-.14-11.34,0-5.67-3.73-6.45-1.24-11.55,2.74-5.63,7.77-3.55,12.19.69Z"/>
    <path class="cls-1" d="m369.67,447.16c-4.27-3.45-.23-5.79-1.59-11.1-1.36-5.32-2.07-5.13-3.43-10.45-1.36-5.32-.91-5.45-2.4-10.73-.04-.14-.09.02-.1.17-.14,5.31.24,5.29.24,10.61,0,5.32-.78,5.32-.78,10.64,0,5.32,4.17,7.5.31,11.15-4.08,3.86-8.11,3.8-12.06-.19-3.99-4.03.4-6,.4-11.67,0-5.67.11-5.67.11-11.34,0-5.67.23-5.67.23-11.34s-4.12-7.06-.48-11.41c3.03-3.63,4.82.38,9.55.38s6.73-4.22,9.9-.7c4.9,5.45,1.1,7.55,2.78,14.67,1.67,7.13,2.19,7,3.97,14.1.03.1-.93.07-.9-.04,1.7-7.1,1.6-7.12,3.2-14.25,1.6-7.13-.91-8.57,3.9-14.07,3.04-3.48,4.58.92,9.21.92s5.66-3.99,8.58-.41c3.58,4.39,1.39,5.12,1.39,10.79,0,5.67-1.22,5.67-1.22,11.34,0,5.67.45,5.67.45,11.34s4.48,7.78.32,11.63c-4.49,4.16-7.75,3.57-12.37-.45-4.01-3.48.54-5.16.54-10.47,0-5.32-.4-5.32-.4-10.64,0-5.32.73-5.34.59-10.66,0-.14-1.85-.32-1.89-.18-1.49,5.28-.22,5.62-1.58,10.94q-1.36,5.32-2.7,10.64c-1.36,5.32-.85,5.46-3.86,10.05-3.08,4.69-5.83,4-9.89.72Z"/>
    <path class="cls-1" d="m420.51,447.27c-4.16-3.85.77-6.02.77-11.69,0-5.67.47-5.67.47-11.34,0-5.67-1.7-5.67-1.7-11.34s-3.7-7.82.32-11.81,6.18,1.18,11.89,1.18,5.71-1.24,11.43-1.24,6.67-2.71,10.96,1.07c3.78,3.33,4.46,6.44.75,9.84-4.06,3.72-5.78-.17-11.29-.17-5.51,0-6.65-3.48-10.97-.07-3.42,2.7-4.35,7.47-.49,9.49,7.33,3.86,10.18-5.56,17.28-1.29,4.26,2.56,4.08,7.98-.18,10.54-7.1,4.26-10.54-5.75-16.38.12-5.87,5.89,2.07,8.35-.9,16.12-2.38,6.24-7.45,4.75-11.94.59Z"/>
    <path class="cls-1" d="m495.78,446.58c-4.54,3.85-5.66.72-11.61.72-5.95,0-5.95.39-11.91.39-5.95,0-7.52,3.25-11.83-.85-4.11-3.91.91-5.59.91-11.26,0-5.67-1.12-5.67-1.12-11.34,0-5.67-.03-5.67-.03-11.34,0-5.67-3.62-7.09.45-11.04s5.55.23,11.39.23,5.85-1.1,11.69-1.1,7.59-3.63,12.02.18c3.82,3.29,3.46,7.13-.34,10.45-4.34,3.79-5.75-.73-11.51-.73s-6.67-2.36-11.51.76c-3.12,2.01-3.1,5.17.32,6.59,8.21,3.42,10.13-4.32,17.89.01,4.34,2.42,4.24,8.92-.09,11.35-7.76,4.34-9.73-3.61-17.87-.02-3.59,1.58-3.03,4.32.24,6.49,4.94,3.27,5.42-.08,11.34-.08s6.05-.65,11.51,1.65c4.85,2.04,3.89,5.68.04,8.94Z"/>
    <path class="cls-1" d="m510.28,429.97c.43,5.69,4.58,8.21,9.62,8.21,4.25,0,7.66-1.55,7.66-4.07,0-2.66-3.35-3-6.81-3.65-4.14-.74-4.24-.16-8.38-.9-3.69-.68-7.36-2.05-9.58-4.24-2.24-2.21-3-5.88-3-9.86,0-4.97,2.09-9.01,5.78-11.55,3.16-2.17,7.6-3.72,12.81-3.72,5.79,0,10.9,1.08,14.15,3.49,3.78,2.79,5.2,7.72,5.32,13.14-5.01,2.54-5.92,2.26-11.16.24-.36-4.68-3.77-7.1-8.45-7.1-4.03,0-7.17,1.91-7.17,4.43,0,2.09,2.48,3.34,5.29,3.85,4.28.76,4.51-.5,8.79.26,4.34.76,7.91,2.5,10.17,4.56,2.69,2.45,3.9,6.25,3.9,10.28,0,5.1-2.8,8.73-6.57,11.14-3.36,2.14-7.77,3.37-12.76,3.37-3.69,0-7.24-.1-10.16-1.15-3.44-1.24-5.73-3.9-7.66-6.51-1.89-2.56-3.72-5.9-3.72-9.69,3.99-4.4,6.8-2.84,11.91-.5Z"/>
    <path class="cls-1" d="m556.77,446.33c-4.23-4.08-.78-5.28-.78-11.16,0-5.88-.58-5.88-.58-11.76,0-5.88,5.67-8.47.97-12.02-6.2-4.69-9.51,4.93-16.03.7-4.23-2.74-3.27-6.95.42-10.38,3.99-3.7,5.3-.75,10.74-.75s5.43.99,10.87.99,5.44-1,10.88-1,7.26-3.48,11.25.22c3.7,3.43,3.79,7.64-.46,10.35-6.64,4.25-9.64-4.95-15.96-.24-4.71,3.51-.7,6.25-.7,12.13,0,5.88.25,5.88.25,11.76,0,5.88,2.92,6.29.43,11.62-2.62,5.58-6.91,3.77-11.28-.45Z"/>
  </g>
  <path class="cls-1" d="m514,165.37c.83-2,2.55.21,3.81-1.55s2.53-3.29.37-3.45c-5.94-.44-5.57,1.57-11.26,3.31s-5.69,1.75-11.38,3.48c-5.7,1.73-5.71,1.69-11.41,3.42-5.7,1.73-5.67,1.83-11.36,3.56s-5.89,1.1-11.58,2.83c-5.7,1.73-5.5,2.36-11.2,4.1-5.7,1.73-6.06.53-11.76,2.26-5.7,1.73-5.32,2.96-11.02,4.7-5.7,1.73-5.69,1.78-11.39,3.51-5.7,1.73-5.97.69-11.01,3.86-1.57.99-1.32.98.06,2.22,1.21,1.08,3.03-2.03,3.36-.44,1.13,5.47-.24,5.94-1.67,11.34-.28,1.06-2.63-.59-2.81.5-.99,6.16.41,6.33.41,12.56,0,6.24-.21,6.24-.21,12.48,0,6.24-.5,6.24-.5,12.48,0,6.24,1.79,6.24,1.79,12.48,0,6.24-1.44,6.24-1.44,12.48,0,6.24-.16,6.24-.16,12.48,0,6.24-.28,6.24-.28,12.48,0,6.24,1.27,6.24,1.27,12.48,0,6.24-1.14,6.24-1.14,12.48,0,6.24,1.66,6.24,1.66,12.49s-5.75,8.49-1.59,13.15c3.72,4.16,6.32-.26,11.91-.26s5.59-1.28,11.17-1.28,5.58,1.45,11.17,1.45,5.59-1.48,11.18-1.48,7.15,4.8,11.08.83c3.97-4.01.37-5.55.37-11.2,0-5.64-1.13-5.64-1.13-11.29,0-5.64,1.84-5.64,1.84-11.29,0-5.65-1.56-5.65-1.56-11.29,0-5.64.64-5.64.64-11.29,0-5.65-.61-5.65-.61-11.3,0-5.65-2.65-6.54,1.26-10.62,3.86-4.03,4.88-.64,10.45-.81s5.56-.82,11.14-.99,5.59.06,11.16-.1,5.58-.12,11.17-.29,7.87,4.37,11.55.17c4.14-4.72.29-6.61.35-12.89.07-6.28-1.17-6.3-1.1-12.58.07-6.28,5.21-8.1,1.03-12.8-3.73-4.2-5.88.31-11.49.36-5.62.04-5.62-.03-11.23,0-5.61.04-5.61.96-11.22,1-5.62.04-5.62-.55-11.24-.5s-12.37,5.31-11.28-.2c1.22-6.16,5.82-2.54,11.8-4.44,5.99-1.89,5.91-2.14,11.89-4.04,5.98-1.89,6.43-.47,12.42-2.36,5.99-1.89,6-1.85,11.99-3.74,5.99-1.89,7.31.14,11.09-4.88,3.47-4.6.44-5.22.23-10.98-.21-5.76-.08-5.77-.29-11.53-.21-5.76,2.34-6.5-.65-11.43-1.5-2.48-2.97,3.13-5.41,1.57-4.81-3.06-1.37-6.07.78-11.22Zm-92.6,38.83c-3.18,4.1-6.78,6.83-10.61,3.33-4.12-3.77-2.32-7.52,1.11-11.94,3.18-4.1,5.46-4.53,10.41-2.99,5.62,1.75,2.51,7.18-.91,11.59Zm14.23-4.25c-3.18,4.1-6.78,6.83-10.61,3.33-4.12-3.77-2.32-7.52,1.11-11.94,3.18-4.1,5.46-4.53,10.41-2.99,5.62,1.75,2.52,7.18-.91,11.59Zm15.41-4.6c-3.18,4.1-6.78,6.83-10.61,3.33-4.12-3.77-2.32-7.52,1.11-11.94,3.18-4.1,5.46-4.53,10.41-2.99,5.62,1.75,2.52,7.18-.91,11.59Zm14.81-4.42c-3.18,4.1-6.78,6.83-10.61,3.33-4.12-3.77-2.32-7.52,1.11-11.94,3.18-4.1,5.46-4.53,10.41-2.99,5.62,1.75,2.51,7.18-.91,11.59Zm14.23-4.25c-3.18,4.1-6.78,6.83-10.61,3.33-4.12-3.77-2.32-7.52,1.11-11.94,3.18-4.1,5.46-4.53,10.41-2.99,5.62,1.75,2.51,7.18-.91,11.59Zm14.23-4.25c-3.18,4.1-6.78,6.83-10.61,3.33-4.12-3.77-2.32-7.52,1.11-11.94,3.18-4.1,5.46-4.53,10.41-2.99,5.62,1.75,2.52,7.18-.91,11.59Zm14.81-4.42c-3.18,4.1-6.78,6.83-10.61,3.33-4.12-3.77-2.32-7.52,1.11-11.94,3.18-4.1,5.46-4.53,10.41-2.99,5.62,1.75,2.52,7.18-.91,11.59Z"/>
  <path class="cls-1" d="m180.36,175.36c-4.2,0-8.21,2.03-12.26,2.61-4.15.59-8.37.4-12.31,1.56s-8,2.45-11.74,4.16c-3.78,1.73-7.67,3.44-11.14,5.68-3.49,2.25-7.03,4.64-10.16,7.35-3.13,2.71-4.69,7.02-7.4,10.15-2.71,3.12-5.67,5.97-7.92,9.46-2.23,3.47-4.1,7.12-5.83,10.9-1.71,3.74-2.73,7.69-3.9,11.69s-1.9,7.88-2.49,12.02-2.02,8.04-2.02,12.24,1.3,8.22,1.87,12.27c.59,4.15-.32,8.6.84,12.53,1.17,4,3.01,7.87,4.72,11.61s4.85,6.8,7.08,10.27c2.25,3.49,3.72,7.57,6.43,10.69,2.71,3.13,6.75,4.92,9.88,7.63,3.12,2.71,5.3,6.72,8.79,8.97,3.47,2.23,8,2.6,11.78,4.33s7.44,3.34,11.44,4.51c3.94,1.15,7.81,2.58,11.95,3.18,4.05.58,8.16.68,12.37.68s8.47.93,12.51.36,7.87-3.05,11.81-4.21c4-1.17,7.98-2.19,11.72-3.9,3.78-1.73,7.53-3.5,10.99-5.73,3.49-2.25,6.84-4.71,9.96-7.42,3.13-2.71,5.8-5.89,8.51-9.02,2.71-3.12,4.9-6.58,7.15-10.07s4.55-6.86,6.28-10.64c1.71-3.74,4.09-7.32,5.26-11.33,1.15-3.94,1.25-8.21,1.84-12.35s.35-8.17.35-12.37.81-8.41.23-12.46c-.59-4.15-2.04-8.11-3.2-12.04-1.17-4-3.47-7.49-5.18-11.24-1.73-3.78-2.82-7.83-5.06-11.3-2.25-3.49-4.92-6.65-7.63-9.78-2.71-3.13-5.69-5.96-8.82-8.67-3.12-2.71-6.43-5.12-9.92-7.37-3.47-2.23-7.26-3.76-11.04-5.49-3.74-1.71-7.27-3.91-11.28-5.09-3.94-1.15-7.85-2.95-11.99-3.54-4.05-.58-8.3-.86-12.51-.86Zm40.11,28.23c4.82,0,9.83.48,12.98,3.63,3.16,3.16,4.29,8.17,4.29,12.98s-2.05,8.91-5.2,12.07c-3.16,3.16-7.25,4.63-12.07,4.63s-8.5-1.89-11.66-5.04c-3.16-3.16-6.78-6.84-6.78-11.66s2.71-9.41,5.87-12.57c3.16-3.16,7.75-4.05,12.57-4.05Zm-115.32,59.6c0-4.82.48-9.83,3.63-12.98,3.16-3.16,8.17-4.29,12.98-4.29s8.91,2.05,12.07,5.2c3.16,3.16,4.63,7.25,4.63,12.07s-1.89,8.5-5.04,11.66-6.84,6.78-11.66,6.78-9.41-2.71-12.57-5.87c-3.16-3.16-4.05-7.75-4.05-12.57Zm34.06,56.42c-4.82,0-9.83-.48-12.98-3.63-3.16-3.16-4.29-8.17-4.29-12.98s2.05-8.91,5.2-12.07c3.16-3.16,7.25-4.63,12.07-4.63s8.5,1.89,11.66,5.04c3.16,3.16,6.78,6.84,6.78,11.66s-2.71,9.41-5.87,12.57c-3.16,3.16-7.75,4.05-12.57,4.05Zm0-82.78c-4.82,0-9.83-.48-12.98-3.63-3.16-3.16-4.29-8.17-4.29-12.98s2.05-8.91,5.2-12.07c3.16-3.16,7.25-4.63,12.07-4.63s8.5,1.89,11.66,5.04c3.16,3.16,6.78,6.84,6.78,11.66s-2.71,9.41-5.87,12.57c-3.16,3.16-7.75,4.05-12.57,4.05Zm41.15,103.68c-4.82,0-9.83-.48-12.98-3.63-3.16-3.16-4.29-8.17-4.29-12.98s2.05-8.91,5.2-12.07c3.16-3.16,7.25-4.63,12.07-4.63s8.5,1.89,11.66,5.04c3.16,3.16,6.78,6.84,6.78,11.66s-2.71,9.41-5.87,12.57c-3.16,3.16-7.75,4.05-12.57,4.05Zm0-119.51c-4.82,0-9.83-.48-12.98-3.63-3.16-3.16-4.29-8.17-4.29-12.98s2.05-8.91,5.2-12.07c3.16-3.16,7.25-4.63,12.07-4.63s8.5,1.89,11.66,5.04c3.16,3.16,6.78,6.84,6.78,11.66s-2.71,9.41-5.87,12.57c-3.16,3.16-7.75,4.05-12.57,4.05Zm40.11,98.61c-4.82,0-9.83-.48-12.98-3.63-3.16-3.16-4.29-8.17-4.29-12.98s2.05-8.91,5.2-12.07c3.16-3.16,7.25-4.63,12.07-4.63s8.5,1.89,11.66,5.04c3.16,3.16,6.78,6.84,6.78,11.66s-2.71,9.41-5.87,12.57c-3.16,3.16-7.75,4.05-12.57,4.05Zm17.44-39.8c-4.82,0-9.83-.48-12.98-3.63-3.16-3.16-4.29-8.17-4.29-12.98s2.05-8.91,5.2-12.07c3.16-3.16,7.25-4.63,12.07-4.63s8.5,1.89,11.66,5.04c3.16,3.16,6.78,6.84,6.78,11.66s-2.71,9.41-5.87,12.57c-3.16,3.16-7.75,4.05-12.57,4.05Z"/>
</svg>